<svg width="361" height="150" viewBox="0 0 361 150" fill="none" xmlns="http://www.w3.org/2000/svg">
<g filter="url(#filter0_d_27:69)">
<rect x="23" y="20" width="311" height="100" rx="8" fill="#15169A"/>
</g>
<path d="M301.536 35.5431C301.536 43.0226 307.605 49.0861 315.091 49.0861C322.577 49.0861 328.646 43.0226 328.646 35.5431C328.646 28.0634 322.577 22 315.091 22H301.536M264.39 71.4842C278.283 71.4842 289.545 60.4068 289.545 46.7421C289.545 33.0774 278.283 22 264.39 22C250.498 22 239.235 33.0774 239.235 46.7421M291.63 83.4646H267.577C252.356 83.4646 240.017 95.8246 240.017 111.072M281.464 97.2681C275.85 97.2681 271.298 101.874 271.298 107.556C271.298 113.237 275.85 117.843 281.464 117.843C287.079 117.843 291.63 113.237 291.63 107.556V97.2681M320.304 107.686C325.919 107.686 330.471 103.08 330.471 97.3983C330.471 91.7166 325.919 87.1108 320.304 87.1108C314.69 87.1108 310.138 91.7166 310.138 97.3983V107.686M301.666 64.4523C301.666 66.1132 301.666 87.0216 301.666 97.2681M264.26 58.2016C270.45 58.2016 275.469 53.1876 275.469 47.0026C275.469 40.8175 270.45 35.8035 264.26 35.8035C258.069 35.8035 253.051 40.8175 253.051 47.0026C253.051 53.1876 258.069 58.2016 264.26 58.2016Z" stroke="white" stroke-opacity="0.05" stroke-width="5" stroke-linecap="round" stroke-linejoin="round"/>
<path d="M202.301 35.5431C202.301 43.0226 208.369 49.0861 215.856 49.0861C223.342 49.0861 229.411 43.0226 229.411 35.5431C229.411 28.0634 223.342 22 215.856 22H202.301M165.155 71.4842C179.047 71.4842 190.31 60.4068 190.31 46.7421C190.31 33.0774 179.047 22 165.155 22C151.262 22 140 33.0774 140 46.7421M192.395 83.4646H168.342C153.121 83.4646 140.782 95.8246 140.782 111.072M182.229 97.2681C176.614 97.2681 172.063 101.874 172.063 107.556C172.063 113.237 176.614 117.843 182.229 117.843C187.844 117.843 192.395 113.237 192.395 107.556V97.2681M221.069 107.686C226.684 107.686 231.235 103.08 231.235 97.3983C231.235 91.7166 226.684 87.1108 221.069 87.1108C215.454 87.1108 210.903 91.7166 210.903 97.3983V107.686M202.431 64.4523C202.431 66.1132 202.431 87.0216 202.431 97.2681M165.025 58.2016C171.215 58.2016 176.233 53.1876 176.233 47.0026C176.233 40.8175 171.215 35.8035 165.025 35.8035C158.834 35.8035 153.816 40.8175 153.816 47.0026C153.816 53.1876 158.834 58.2016 165.025 58.2016Z" stroke="white" stroke-opacity="0.05" stroke-width="5" stroke-linecap="round" stroke-linejoin="round"/>
<path d="M101.065 35.5431C101.065 43.0226 107.134 49.0861 114.62 49.0861C122.106 49.0861 128.175 43.0226 128.175 35.5431C128.175 28.0634 122.106 22 114.62 22H101.065M63.9195 71.4842C77.8121 71.4842 89.0744 60.4068 89.0744 46.7421C89.0744 33.0774 77.8121 22 63.9195 22C50.027 22 38.7646 33.0774 38.7646 46.7421M91.1598 83.4646H67.1068C51.8857 83.4646 39.5467 95.8246 39.5467 111.072M80.9936 97.2681C75.3788 97.2681 70.8273 101.874 70.8273 107.556C70.8273 113.237 75.3788 117.843 80.9936 117.843C86.6083 117.843 91.1598 113.237 91.1598 107.556V97.2681M119.834 107.686C125.448 107.686 130 103.08 130 97.3983C130 91.7166 125.448 87.1108 119.834 87.1108C114.219 87.1108 109.668 91.7166 109.668 97.3983V107.686M101.196 64.4523C101.196 66.1132 101.196 87.0216 101.196 97.2681M63.7892 58.2016C69.9797 58.2016 74.9981 53.1876 74.9981 47.0026C74.9981 40.8175 69.9797 35.8035 63.7892 35.8035C57.5987 35.8035 52.5803 40.8175 52.5803 47.0026C52.5803 53.1876 57.5987 58.2016 63.7892 58.2016Z" stroke="white" stroke-opacity="0.05" stroke-width="5" stroke-linecap="round" stroke-linejoin="round"/>
<defs>
<filter id="filter0_d_27:69" x="0" y="0" width="361" height="150" filterUnits="userSpaceOnUse" color-interpolation-filters="sRGB">
<feFlood flood-opacity="0" result="BackgroundImageFix"/>
<feColorMatrix in="SourceAlpha" type="matrix" values="0 0 0 0 0 0 0 0 0 0 0 0 0 0 0 0 0 0 127 0" result="hardAlpha"/>
<feOffset dx="2" dy="5"/>
<feGaussianBlur stdDeviation="12.5"/>
<feComposite in2="hardAlpha" operator="out"/>
<feColorMatrix type="matrix" values="0 0 0 0 0 0 0 0 0 0 0 0 0 0 0 0 0 0 0.1 0"/>
<feBlend mode="normal" in2="BackgroundImageFix" result="effect1_dropShadow_27:69"/>
<feBlend mode="normal" in="SourceGraphic" in2="effect1_dropShadow_27:69" result="shape"/>
</filter>
</defs>
</svg>
