<svg width="370" height="388" viewBox="0 0 370 388" fill="none" xmlns="http://www.w3.org/2000/svg">
<path d="M249 62C249 90.7186 272.281 114 301 114C329.719 114 353 90.7186 353 62C353 33.2812 329.719 10 301 10H249M106.5 200C159.795 200 203 157.467 203 105C203 52.5329 159.795 10 106.5 10C53.2049 10 10 52.5329 10 105M211 246H118.727C60.3355 246 13 293.458 13 352M172 299C150.461 299 133 316.684 133 338.5C133 360.316 150.461 378 172 378C193.539 378 211 360.316 211 338.5V299M321 339C342.539 339 360 321.316 360 299.5C360 277.684 342.539 260 321 260C299.461 260 282 277.684 282 299.5V339M249.5 173C249.5 179.377 249.5 259.658 249.5 299M106 149C129.748 149 149 129.748 149 106C149 82.2518 129.748 63 106 63C82.2518 63 63 82.2518 63 106C63 129.748 82.2518 149 106 149Z" stroke="white" stroke-width="20" stroke-linecap="round" stroke-linejoin="round"/>
</svg>
